#!OML:ASF H:\Punching\Project 1\Capture day 1\Session 1\female.ASF
:FULLY-SPECIFIED
:DEGREES
2843
root 1.46893 15.3874 5.50103 -39.1309 -46.9012 24.8792
lowerback 9.73686 0.890576 8.40475
upperback 4.33886 1.61875 -9.01408
thorax -0.303978 0.98791 -14.9515
lowerneck 3.97179 13.2022 16.1082
upperneck 41.8362 22.8052 -13.3476
head 19.4407 10.4984 -5.6398
rclavicle 2.07481e-014 3.95085e-015
rhumerus 20.6793 41.2567 -72.4051
rradius 117.283
rwrist -5.89914
rhand -30.6625 13.1679
rfingers 7.12502
rthumb -3.95726 -16.7751
lclavicle 2.07481e-014 3.95085e-015
lhumerus -14.3145 3.98659 50.7085
lradius 141.888
lwrist 3.77292
lhand -25.9841 8.2729
lfingers 7.12502
lthumb 0.561056 38.2519
rfemur 7.65174 12.5457 15.1239
rtibia 37.8368
rfoot -20.6841 -0.352768
rtoes 16.8253
lfemur -120.964 28.3945 -11.4843
ltibia 83.4898
lfoot -152.046 188.495
ltoes -7.46467
2844
root 1.47634 15.377 5.49478 -38.366 -46.6158 24.3812
lowerback 9.66414 0.748499 8.43987
upperback 4.2355 1.42768 -8.97988
thorax -0.436621 0.875672 -14.9137
lowerneck 3.86359 13.1873 16.117
upperneck 41.9073 22.7583 -13.293
head 19.4927 10.4779 -5.62017
rclavicle -6.8295e-014 2.21396e-014
rhumerus 20.7271 41.1692 -72.2514
rradius 117.598
rwrist -6.51447
rhand -30.5646 13.0701
rfingers 7.12502
rthumb -3.86264 -16.8747
lclavicle -6.8295e-014 2.21396e-014
lhumerus -14.0147 3.77405 50.6898
lradius 141.942
lwrist 3.96451
lhand -26.1202 8.58726
lfingers 7.12502
lthumb 0.429669 38.5666
rfemur 7.20515 12.4295 15.271
rtibia 38.0782
rfoot -20.833 -0.657895
rtoes 17.0941
lfemur -121.567 27.6744 -13.0456
ltibia 87.6792
lfoot -152.258 188.531
ltoes -4.76158
2845
root 1.48457 15.3652 5.48277 -37.6596 -46.2503 23.9107
lowerback 9.66602 0.606526 8.35807
upperback 4.14571 1.22949 -8.93386
thorax -0.602911 0.756044 -14.7884
lowerneck 3.73397 13.1634 16.0946
upperneck 41.9629 22.7006 -13.2477
head 19.5322 10.4473 -5.60021
rclavicle -1.11413e-014 -7.42958e-015
rhumerus 20.8155 41.0695 -72.0088
rradius 117.934
rwrist -7.15423
rhand -30.4302 12.994
rfingers 7.12502
rthumb -3.73286 -16.9531
lclavicle -1.11413e-014 -7.42958e-015
lhumerus -13.7155 3.56133 50.747
lradius 141.964
lwrist 4.09734
lhand -26.2063 8.79125
lfingers 7.12502
lthumb 0.346468 38.7707
rfemur 6.78046 12.3013 15.3899
rtibia 38.3511
rfoot -20.9918 -1.00331
rtoes 17.359
lfemur -121.787 26.9358 -14.5224
ltibia 91.6856
lfoot -152.605 188.353
ltoes -2.63493
2846
root 1.49379 15.3521 5.46436 -37.0144 -45.8308 23.4591
lowerback 9.75723 0.465917 8.17264
upperback 4.06943 1.02793 -8.86797
thorax -0.808104 0.631414 -14.575
lowerneck 3.59243 13.1324 16.0492
upperneck 41.9951 22.6395 -13.2239
head 19.5581 10.4104 -5.58599
rclavicle -4.50931e-014 7.03201e-015
rhumerus 20.9478 40.9556 -71.682
rradius 118.272
rwrist -7.73477
rhand -30.2789 12.9419
rfingers 7.12502
rthumb -3.58678 -17.0077
lclavicle -4.50931e-014 7.03201e-015
lhumerus -13.4163 3.35191 50.8759
lradius 141.948
lwrist 4.12839
lhand -26.235 8.90377
lfingers 7.12502
lthumb 0.318789 38.8833
rfemur 6.38457 12.1669 15.5058
rtibia 38.6378
rfoot -21.1377 -1.39461
rtoes 17.5795
lfemur -121.629 26.2127 -15.921
ltibia 95.5063
lfoot -153.031 187.669
ltoes -1.81255
2847
root 1.50401 15.3383 5.43976 -36.4409 -45.39 23.017
lowerback 9.954 0.33066 7.91388
upperback 4.01241 0.8315 -8.77887
thorax -1.04996 0.507675 -14.2905
lowerneck 3.43652 13.0954 15.9882
upperneck 41.9973 22.5768 -13.2256
head 19.5694 10.369 -5.57954
rclavicle -2.00524e-014 -2.65626e-014
rhumerus 21.1331 40.818 -71.2645
rradius 118.595
rwrist -8.18962
rhand -30.1448 12.9267
rfingers 7.12502
rthumb -3.45733 -17.025
lclavicle -2.00524e-014 -2.65626e-014
lhumerus -13.1028 3.14573 51.0672
lradius 141.893
lwrist 4.04253
lhand -26.2018 8.93554
lfingers 7.12502
lthumb 0.350844 38.915
rfemur 6.0364 12.046 15.6496
rtibia 38.9233
rfoot -21.26 -1.83145
rtoes 17.733
lfemur -121.102 25.5534 -17.248
ltibia 99.1474
lfoot -153.519 186.393
ltoes -2.49688
2848
root 1.51498 15.3224 5.4107 -35.9029 -44.9532 22.5644
lowerback 10.2239 0.205763 7.62231
upperback 3.97092 0.648786 -8.6678
thorax -1.3098 0.391408 -13.962
lowerneck 3.26616 13.0532 15.928
upperneck 41.9678 22.5133 -13.2549
head 19.5692 10.3256 -5.58419
rclavicle -4.72114e-016 8.28435e-014
rhumerus 21.3649 40.6455 -70.7823
rradius 118.887
rwrist -8.46948
rhand -30.0201 12.9044
rfingers 7.12502
rthumb -3.33687 -17.0492
lclavicle -4.72114e-016 8.28435e-014
lhumerus -12.7605 2.93806 51.3001
lradius 141.806
lwrist 3.85565
lhand -26.1215 8.92521
lfingers 7.12502
lthumb 0.428369 38.9045
rfemur 5.71119 11.9448 15.8405
rtibia 39.2101
rfoot -21.3591 -2.3078
rtoes 17.8398
lfemur -120.248 24.9814 -18.4589
ltibia 102.613
lfoot -154.056 184.981
ltoes -3.75131
